<?xml version="1.0" standalone="no"?>
<!DOCTYPE svg PUBLIC "-//W3C//DTD SVG 20010904//EN"
 "http://www.w3.org/TR/2001/REC-SVG-20010904/DTD/svg10.dtd">
<svg version="1.0" xmlns="http://www.w3.org/2000/svg"
 width="1036.000000pt" height="537.000000pt" viewBox="0 0 1036.000000 537.000000"
 preserveAspectRatio="xMidYMid meet">

<g transform="translate(0.000000,537.000000) scale(0.100000,-0.100000)"
fill="#000000" stroke="none">
<path d="M2490 5360 c-1189 -91 -2180 -961 -2423 -2125 -44 -212 -52 -296 -51
-565 0 -282 15 -405 74 -638 90 -358 275 -734 500 -1017 91 -114 278 -303 398
-402 727 -600 1720 -773 2609 -454 882 316 1541 1077 1723 1991 16 80 31 172
35 205 3 33 8 75 11 92 l5 33 1152 2 1152 3 0 200 0 200 -1134 3 -1134 2 6 68
c3 37 17 125 31 195 86 424 307 828 626 1147 184 185 385 326 630 444 313 150
607 215 972 216 220 0 379 -18 563 -65 896 -226 1563 -967 1701 -1890 24 -161
24 -474 1 -636 -72 -492 -284 -922 -626 -1273 -200 -205 -385 -338 -636 -461
-286 -140 -557 -210 -893 -230 l-112 -7 2 -197 3 -196 127 2 c220 4 502 56
732 134 403 137 731 343 1036 648 221 221 368 421 499 680 438 862 376 1903
-160 2700 -448 667 -1124 1080 -1934 1182 -128 16 -471 16 -600 0 -616 -77
-1167 -343 -1595 -771 -436 -436 -703 -999 -775 -1632 l-6 -58 -1155 0 -1154
0 0 -205 0 -205 1136 0 1137 0 -7 -72 c-21 -228 -108 -512 -229 -753 -481
-949 -1547 -1439 -2583 -1186 -168 42 -277 82 -449 166 -694 338 -1153 972
-1266 1750 -20 135 -18 483 4 625 102 660 461 1221 1012 1583 345 226 789 367
1156 367 l89 0 0 205 0 205 -52 -1 c-29 -1 -96 -5 -148 -9z"/>
</g>
</svg>
